<svg width="1000" height="1000" viewBox="0 0 1000 1000" fill="none" xmlns="http://www.w3.org/2000/svg">
<g clip-path="url(#clip0_2373_62)">
<rect x="22" y="262" width="956" height="721" rx="35" fill="url(#paint0_linear_2373_62)"/>
<path fill-rule="evenodd" clip-rule="evenodd" d="M1000 0H0V1000H1000V0ZM57 22H943C962.33 22 978 37.67 978 57V948C978 967.33 962.33 983 943 983H57C37.67 983 22 967.33 22 948V57C22 37.67 37.67 22 57 22Z" fill="white"/>
<path d="M103.6 885.6C93.15 885.6 85.5 877.8 85.5 867.5C85.5 857.2 93.15 849.4 103.6 849.4C111.95 849.4 118.45 854.55 120.5 862H112.85C111.2 858.4 107.85 856.2 103.55 856.2C97.1 856.2 92.7 860.95 92.7 867.5C92.7 874.05 97.1 878.8 103.55 878.8C107.85 878.8 111.2 876.6 112.85 873H120.5C118.45 880.45 111.95 885.6 103.6 885.6ZM155.454 885H146.504L133.354 868.65V885H126.204V850H133.354V865.5L145.804 850H154.654L140.904 866.95L155.454 885ZM174.057 849.4C184.357 849.4 192.307 857.2 192.307 867.5C192.307 877.8 184.357 885.6 174.057 885.6C163.757 885.6 155.857 877.8 155.857 867.5C155.857 857.2 163.757 849.4 174.057 849.4ZM174.057 856.2C167.757 856.2 163.057 860.95 163.057 867.5C163.057 874.05 167.757 878.8 174.057 878.8C180.357 878.8 185.057 874.05 185.057 867.5C185.057 860.95 180.357 856.2 174.057 856.2ZM213.072 850C220.572 850 225.522 854.4 225.522 861.75C225.522 869.1 220.572 873.7 213.072 873.7H205.522V885H198.372V850H213.072ZM212.772 866.9C216.472 866.9 218.272 864.9 218.272 861.85C218.272 858.75 216.472 856.8 212.772 856.8H205.522V866.9H212.772ZM248.178 849.4C258.478 849.4 266.428 857.2 266.428 867.5C266.428 877.8 258.478 885.6 248.178 885.6C237.878 885.6 229.978 877.8 229.978 867.5C229.978 857.2 237.878 849.4 248.178 849.4ZM248.178 856.2C241.878 856.2 237.178 860.95 237.178 867.5C237.178 874.05 241.878 878.8 248.178 878.8C254.478 878.8 259.178 874.05 259.178 867.5C259.178 860.95 254.478 856.2 248.178 856.2ZM315.784 878.2H321.084V891.95H313.934V885H287.484V878.2V850H294.634V878.2H308.634V850H315.784V878.2ZM349.802 856.8H333.452V863.85H348.452V870.65H333.452V878.2H349.802V885H326.302V850H349.802V856.8ZM363.882 850H386.532V885H379.382V856.8H369.932L367.132 874.25C365.832 882.4 362.382 885.6 357.382 885.6C356.282 885.6 354.932 885.45 353.882 885.25V878.8C354.532 878.9 355.282 878.95 355.882 878.95C358.332 878.95 359.432 877.8 360.082 873.55L363.882 850ZM415.624 850H423.824V885H416.674V870.35L417.324 860.5L402.074 885H393.874V850H401.024V864.65L400.374 874.5L415.624 850ZM453.885 850H461.035V885H453.885V870.5H438.335V885H431.185V850H438.335V863.7H453.885V850ZM493.886 885L490.936 876.75H476.786L473.786 885H466.236L479.336 850H488.386L501.486 885H493.886ZM479.236 869.95H488.436L483.836 857.25L479.236 869.95ZM112.05 938L109.1 929.75H94.95L91.95 938H84.4L97.5 903H106.55L119.65 938H112.05ZM97.4 922.95H106.6L102 910.25L97.4 922.95ZM164.727 903V909.8H154.627V938H147.477V909.8H137.427V903H164.727ZM184.855 916.15C192.505 916.15 196.705 919.95 196.705 927.05C196.705 934.1 192.205 938 184.705 938H169.905V903H177.055V916.15H184.855ZM200.855 903H208.005V938H200.855V903ZM184.455 931.2C187.805 931.2 189.505 929.75 189.505 926.95C189.505 924.15 187.955 922.85 184.605 922.85H177.055V931.2H184.455ZM251.675 903V909.8H236.675V938H229.525V903H251.675ZM273.227 902.4C283.527 902.4 291.477 910.2 291.477 920.5C291.477 930.8 283.527 938.6 273.227 938.6C262.927 938.6 255.027 930.8 255.027 920.5C255.027 910.2 262.927 902.4 273.227 902.4ZM273.227 909.2C266.927 909.2 262.227 913.95 262.227 920.5C262.227 927.05 266.927 931.8 273.227 931.8C279.527 931.8 284.227 927.05 284.227 920.5C284.227 913.95 279.527 909.2 273.227 909.2ZM322.1 903V909.8H312V938H304.85V909.8H294.8V903H322.1ZM343.637 902.4C353.937 902.4 361.887 910.2 361.887 920.5C361.887 930.8 353.937 938.6 343.637 938.6C333.337 938.6 325.437 930.8 325.437 920.5C325.437 910.2 333.337 902.4 343.637 902.4ZM343.637 909.2C337.337 909.2 332.637 913.95 332.637 920.5C332.637 927.05 337.337 931.8 343.637 931.8C349.937 931.8 354.637 927.05 354.637 920.5C354.637 913.95 349.937 909.2 343.637 909.2ZM389.652 919.15C393.402 920.4 395.202 923.8 395.202 927.9C395.202 934.3 390.602 938 383.402 938H367.952V903H383.302C389.752 903 394.002 906.1 394.002 912.1C394.002 915.6 392.502 917.7 389.652 919.15ZM386.802 913.3C386.802 910.75 385.352 909.8 382.352 909.8H375.102V916.85H382.552C385.502 916.85 386.802 915.65 386.802 913.3ZM383.252 931.2C386.902 931.2 387.952 929.65 387.952 927.3C387.952 924.75 386.902 923.4 383.202 923.4H375.102V931.2H383.252ZM407.761 926.3V923.7C407.761 920.05 409.211 919.1 412.961 917.1C415.711 915.65 416.861 914.95 416.861 913.05C416.861 910.8 415.311 909.05 411.561 909.05C408.811 909.05 406.511 910.05 406.211 914.3H399.011C399.311 906.45 404.761 902.4 411.861 902.4C418.761 902.4 424.061 906.15 424.061 912.8C424.061 917.8 421.061 919.7 417.161 921.75C415.311 922.75 414.711 923.45 414.711 925.1V926.3H407.761ZM411.211 938.6C408.611 938.6 406.661 936.9 406.661 934.35C406.661 931.8 408.611 930.1 411.211 930.1C413.861 930.1 415.811 931.8 415.811 934.35C415.811 936.9 413.861 938.6 411.211 938.6Z" fill="white"/>
<line x1="60" y1="841" x2="60" y2="947" stroke="white" stroke-width="8"/>
</g>
<defs>
<linearGradient id="paint0_linear_2373_62" x1="500" y1="262" x2="500" y2="983" gradientUnits="userSpaceOnUse">
<stop stop-color="#D9D9D9" stop-opacity="0"/>
<stop offset="0.610577" stop-color="#0805FF" stop-opacity="0"/>
<stop offset="1" stop-color="#0805FF" stop-opacity="0.66"/>
</linearGradient>
<clipPath id="clip0_2373_62">
<rect width="1000" height="1000" fill="white"/>
</clipPath>
</defs>
</svg>
