<svg width="1470" height="1000" viewBox="0 0 1470 1000" fill="none" xmlns="http://www.w3.org/2000/svg">
<g clip-path="url(#clip0_2602_127)">
<path d="M22 297C22 277.67 37.67 262 57 262L1413 262C1432.33 262 1448 277.67 1448 297V948C1448 967.33 1432.33 983 1413 983H57C37.67 983 22 967.33 22 948V297Z" fill="url(#paint0_linear_2602_127)"/>
<path fill-rule="evenodd" clip-rule="evenodd" d="M1470 0H0V1000H1470V0ZM57 22H1413C1432.33 22 1448 37.67 1448 57V948C1448 967.33 1432.33 983 1413 983H57C37.67 983 22 967.33 22 948V57C22 37.67 37.67 22 57 22Z" fill="white"/>
</g>
<defs>
<linearGradient id="paint0_linear_2602_127" x1="500" y1="262" x2="500" y2="983" gradientUnits="userSpaceOnUse">
<stop stop-color="#D9D9D9" stop-opacity="0"/>
<stop offset="0.610577" stop-color="#0805FF" stop-opacity="0"/>
<stop offset="1" stop-color="#0805FF" stop-opacity="0.66"/>
</linearGradient>
<clipPath id="clip0_2602_127">
<rect width="1470" height="1000" fill="white"/>
</clipPath>
</defs>
</svg>
